<svg xmlns="http://www.w3.org/2000/svg" width="70" height="70" viewBox="0 0 18.521 18.521"><path style="color:#000;fill:#bcbec0;fill-opacity:1;stroke-width:.264583;stroke-linejoin:round;paint-order:stroke fill markers" d="M9.213 0c-2.43 0-4.627.247-6.264.665-.818.208-1.496.455-2.018.77-.466.28-.878.662-.962 1.189h-.016v.154c0 .16.112.4.525.705.414.306 1.084.623 1.935.889 1.702.532 4.124.876 6.8.876 2.675 0 5.098-.344 6.8-.876.851-.266 1.521-.583 1.934-.889.414-.305.526-.546.526-.705h-.004c-.02-.607-.464-1.036-.974-1.343-.522-.315-1.2-.562-2.018-.77C13.84.247 11.642 0 9.213 0Zm-9.26 4.62v2.606c.022.158.144.377.516.652.413.305 1.083.623 1.934.889 1.702.531 4.125.876 6.8.876 2.676 0 5.099-.345 6.8-.876.852-.266 1.522-.584 1.935-.889.413-.305.526-.546.526-.705h.01V4.62c-.558.367-1.262.67-2.092.93-1.873.585-4.389.932-7.169.932-2.78 0-5.295-.347-7.168-.932-.83-.26-1.534-.563-2.092-.93zm18.52 4.387c-.3.2-.642.38-1.026.546-.33.141-.689.271-1.075.392-1.873.585-4.389.932-7.169.932-2.78 0-5.295-.347-7.168-.932-.825-.258-1.526-.559-2.082-.923v2.708c0 .16.112.4.525.705.414.305 1.084.622 1.935.888 1.702.532 4.124.876 6.8.876 2.675 0 5.098-.344 6.8-.876.851-.266 1.521-.583 1.934-.888.414-.306.526-.546.526-.705zm-18.52 4.565V15.897h.016c.084.527.496.908.962 1.189.522.315 1.2.561 2.018.77 1.637.418 3.835.665 6.264.665 2.43 0 4.627-.247 6.264-.665.818-.209 1.496-.455 2.018-.77.466-.281.878-.662.962-1.189h.016V13.572c-.558.367-1.261.67-2.091.93-1.873.585-4.39.932-7.17.932-2.779 0-5.295-.347-7.168-.932-.83-.26-1.534-.563-2.091-.93z"/></svg>