<svg xmlns="http://www.w3.org/2000/svg" width="70.933" height="70" viewBox="0 0 18.768 18.521"><path d="M25.431 25.209c-1.263 1.135.142 2.284 1.388 1.552.277-.281-.008-1.27-1.387-1.552zM7.296 27.041c.98.849 2.496-.211 2.949-1.395-.95-1.262-4.507.046-2.949 1.395zm18.655-2.987c0 .562 4.141.931 4.141-.132a2.313 2.313 0 0 0-4.135.118zM13.233 2.216 2.161 13.545c-3.74 4.632 2.547 4.094 5.241 5.427.967.988-3.705 1.718-2.738 2.707.966.988 5.846 1.904 6.814 2.892.966.988-1.979 2.037-1.012 3.024.966.99 3.203.052 3.621 2.334.297 1.63 4.029.7 5.853-.635.967-.988-1.849-.896-.882-1.884 2.403-2.458 4.642-.892 5.465-3.357.406-1.217-3.539-1.876-2.571-2.864 2.782-1.625 12.395-2.682 7.833-7.243L18.311 2.216A3.667 3.667 0 0 0 15.772 1.2c-.985 0-1.88.387-2.54 1.017zm4.408.796 4.38 4.449a1.296 1.296 0 0 1 .174 1.491l.003-.007-2.174-1.739-.427 2.576-1.818-.959-2.909 1.837-.963-3.874-1.563 2.704H9.953c-.975 0-1.088-1.237-.204-2.122 1.546-1.668 3.32-3.369 4.285-4.355a2.58 2.58 0 0 1 1.804-.732c.702 0 1.338.279 1.804.733l-.001-.001Zm-7.057 16.576c.296.184 4.771 1.093 5.865 1.275.379.08.11.47-.412.734-1.178.314-6.894-2.008-5.452-2.008z" style="fill:#d79887;fill-opacity:1;stroke-width:10.5702" transform="matrix(.62578 0 0 .62578 -.61 -.75)"/></svg>