<svg xmlns="http://www.w3.org/2000/svg" width="78.587" height="70" viewBox="0 0 20.793 18.521"><path d="M9.226 13.566c.382.017.771.03 1.166.03q.599 0 1.179-.03c-.387.499-.768.94-1.171 1.361l.005-.005a18 18 0 0 1-1.15-1.319Zm-3.95-.555c.75.19 1.667.353 2.601.453l.091.007a21 21 0 0 0 1.77 2.128l-.007-.009a6.25 6.25 0 0 1-3.522 1.983l-.039.006h-.008a1 1 0 0 1-.476-.118l.005.003c-.576-.33-.827-1.589-.632-3.208.046-.398.123-.818.216-1.246Zm10.25-.009c.08.329.158.748.213 1.173l.006.06c.199 1.618-.047 2.876-.619 3.213a.9.9 0 0 1-.49.11h.002a6.3 6.3 0 0 1-3.556-1.97l-.004-.005c.609-.64 1.183-1.33 1.71-2.055l.04-.059a20 20 0 0 0 2.834-.497zm-9.44-2.587c.174.34.355.678.555 1.018q.299.506.611.99a19 19 0 0 1-1.738-.335c.156-.545.351-1.11.572-1.675Zm8.617-.018c.23.57.424 1.137.586 1.688-.555.136-1.14.25-1.747.338a22 22 0 0 0 1.162-2.026zM4.586 6.69A20 20 0 0 0 5.59 9.397l-.052-.126a19 19 0 0 0-.905 2.426l-.036.142c-.49-.15-.883-.298-1.266-.464l.08.03C1.91 10.767.938 9.927.938 9.262c0-.666.971-1.51 2.471-2.145.364-.156.763-.297 1.175-.428Zm11.605-.004q.631.196 1.19.432c1.501.641 2.472 1.48 2.472 2.145-.005.665-.975 1.507-2.475 2.144-.364.156-.763.296-1.174.427a20.4 20.4 0 0 0-1.006-2.712l.053.13a19 19 0 0 0 .903-2.425l.037-.143Zm-2.654-.584c.602.09 1.182.199 1.738.336-.156.547-.351 1.11-.572 1.675a22.313 22.313 0 0 0-1.165-2.01Zm-6.29 0c-.208.327-.416.66-.61 1.005q-.292.508-.55 1.017A18 18 0 0 1 5.5 6.437c.554-.13 1.139-.246 1.745-.335Zm3.15-.22c.64 0 1.279.029 1.907.08q.528.756 1.025 1.611.483.832.882 1.686c-.267.568-.56 1.135-.878 1.69-.33.572-.67 1.116-1.023 1.62a22 22 0 0 1-3.823.004 23 23 0 0 1-1.024-1.61q-.484-.833-.882-1.687c.263-.57.56-1.138.878-1.693.329-.572.67-1.114 1.022-1.618a22 22 0 0 1 1.915-.085Zm-.014-2.275q.604.625 1.15 1.318l.028.037a26 26 0 0 0-1.166-.03q-.598 0-1.178.03c.385-.5.767-.941 1.17-1.362l-.005.005zM6.153.963a6.3 6.3 0 0 1 3.556 1.97l.005.005c-.61.64-1.184 1.33-1.71 2.058l-.04.058c-1.023.106-1.94.27-2.833.495l.136-.029q-.145-.637-.22-1.23c-.199-1.618.047-2.876.619-3.211a1.2 1.2 0 0 1 .486-.115h.002zm8.465-.017V.95h.03q.251.002.46.113l-.006-.003c.577.33.827 1.59.633 3.209-.047.399-.123.819-.217 1.247a19 19 0 0 0-2.602-.455l-.09-.007a21 21 0 0 0-1.77-2.129l.008.009A6.27 6.27 0 0 1 14.582.953l.038-.007zM14.622 0a7.1 7.1 0 0 0-4.229 2.266l-.005.006A7.1 7.1 0 0 0 6.193.023L6.153.02h-.03c-.34 0-.66.09-.937.246l.01-.005c-1.191.687-1.458 2.828-.843 5.515C1.715 6.589 0 7.89 0 9.263c0 1.378 1.724 2.683 4.37 3.492-.61 2.697-.338 4.841.855 5.527.263.15.577.239.912.239h.045-.002a7.1 7.1 0 0 0 4.23-2.268l.005-.006a7.1 7.1 0 0 0 4.195 2.25l.039.005h.036c.338 0 .656-.089.932-.243l-.01.005c1.19-.687 1.458-2.828.843-5.515 2.628-.807 4.343-2.112 4.343-3.486 0-1.378-1.724-2.683-4.37-3.494.61-2.694.338-4.84-.856-5.528a1.85 1.85 0 0 0-.92-.241h-.027zm-2.294 9.262a1.937 1.937 0 1 1-.567-1.37c.351.351.567.835.567 1.37" style="stroke-width:.693301;fill:#bcbec0;fill-opacity:1"/></svg>